# xmcd
#
# Track frame offsets: 
#        150
#        16471
#        33202
#        49843
#        73618
#        92457
#        109290
#
# Disc length: 1895 seconds
#
# Revision: 2
# Processed by: cddbd v1.5.2PL0 Copyright (c) Steve Scherf et al.
# Submitted via: ExactAudioCopy v0.99pb3
#
DISCID=53076507
DTITLE=Nathan Gaunt and The Blackeyed Dogs - Come Home
DYEAR=2003
DGENRE=Easy Listening
TTITLE0=Come Home
TTITLE1=Bitter Tasting Lies
TTITLE2=The Pefect Blue
TTITLE3=I'm On Fire
TTITLE4=Bullet Baby
TTITLE5=Waiting For You
TTITLE6=There's No God
EXTD=
EXTT0=
EXTT1=
EXTT2=
EXTT3=
EXTT4=
EXTT5=
EXTT6=
PLAYORDER=
